<svg width="37" height="37" viewBox="0 0 37 37" fill="none" xmlns="http://www.w3.org/2000/svg">
<path d="M22.094 7.95942V1.35396C22.0951 1.08917 22.1752 0.830894 22.3239 0.612931C22.4726 0.394967 22.6828 0.227477 22.9272 0.132387C23.1715 0.0372963 23.4385 0.0190365 23.6933 0.0799977C23.9481 0.140959 24.1787 0.2783 24.355 0.474043L36.049 13.6152C36.2558 13.8484 36.3735 14.1487 36.3808 14.4618C36.3881 14.775 36.2847 15.0806 36.089 15.3234L24.394 29.7804C24.2243 29.9896 23.9948 30.1408 23.7369 30.2133C23.4791 30.2857 23.2054 30.2759 22.9533 30.1852C22.7011 30.0945 22.4828 29.9272 22.3282 29.7064C22.1735 29.4855 22.09 29.2217 22.089 28.9511V22.4022C11.824 22.74 5.418 27.1781 2.531 35.9388C2.44446 36.2 2.27898 36.4272 2.05792 36.5882C1.83686 36.7491 1.57139 36.8358 1.299 36.8359C1.22898 36.8361 1.15907 36.8303 1.09 36.8187C0.78566 36.7684 0.50894 36.6102 0.30927 36.3725C0.109599 36.1348 -1.74712e-05 35.833 2.08866e-09 35.5211C0.001 20.0457 9.21201 8.67651 22.094 7.95942Z" fill="#FF4F4F"/>
</svg>
